<svg width="12" height="7" viewBox="0 0 12 7" xmlns="http://www.w3.org/2000/svg">
<path d="M0.315363 6.68352C0.735847 7.10549 1.41759 7.10549 1.83807 6.68352L6.65998 1.84458C7.08046 1.42261 7.08046 0.73846 6.65998 0.31649C6.23949 -0.105479 5.55775 -0.105479 5.13727 0.31649L0.315363 5.15544C-0.105122 5.57741 -0.105122 6.26155 0.315363 6.68352Z"/>
<path d="M11.6846 6.68351C12.1051 6.26154 12.1051 5.57739 11.6846 5.15542L6.86273 0.316478C6.44224 -0.105492 5.76051 -0.105492 5.34002 0.316478C4.91954 0.738448 4.91954 1.4226 5.34002 1.84457L10.1619 6.68351C10.5824 7.10548 11.2642 7.10548 11.6846 6.68351Z"/>
</svg>
